<svg width="222" height="158" viewBox="0 0 222 158" fill="none" xmlns="http://www.w3.org/2000/svg">
<g filter="url(#filter0_d_4_7280)">
<g clip-path="url(#clip0_4_7280)">
<g filter="url(#filter1_d_4_7280)">
<rect x="29.4546" y="27.2375" width="162.624" height="98.3164" rx="7.8924" fill="white"/>
<rect x="29.7834" y="27.5664" width="161.966" height="97.6587" rx="7.56355" stroke="#E2E8F0" stroke-width="0.6577"/>
</g>
<path d="M124.175 79.9082L179.549 113.319" stroke="#E2E8F0" stroke-width="1.3154" stroke-linecap="round"/>
<path d="M99.9668 79.9082L44.5935 113.319" stroke="#E2E8F0" stroke-width="1.3154" stroke-linecap="round"/>
<g filter="url(#filter2_ddi_4_7280)">
<path d="M115.734 88.0734C111.641 90.1977 106.757 90.1388 102.716 87.9162L36.1839 51.3236C23.6609 44.4359 28.5646 25.3926 42.8568 25.4099L179.581 25.5757C194.034 25.5932 198.754 44.989 185.926 51.6465L115.734 88.0734Z" fill="white"/>
</g>
<path d="M93.7633 99.5348H94.2472L95.3851 102.314H95.4243L96.5622 99.5348H97.0462V102.883H96.6669V100.339H96.6342L95.5878 102.883H95.2216L94.1753 100.339H94.1426V102.883H93.7633V99.5348ZM98.9641 102.883V99.5348H100.985V99.8944H99.3695V101.026H100.88V101.385H99.3695V102.523H101.011V102.883H98.9641ZM104.652 100.372C104.632 100.206 104.552 100.078 104.413 99.986C104.273 99.8944 104.102 99.8487 103.9 99.8487C103.751 99.8487 103.622 99.8726 103.51 99.9206C103.4 99.9686 103.314 100.035 103.252 100.118C103.191 100.202 103.161 100.298 103.161 100.405C103.161 100.494 103.182 100.571 103.224 100.635C103.268 100.698 103.324 100.751 103.391 100.794C103.459 100.835 103.53 100.869 103.604 100.897C103.678 100.923 103.746 100.944 103.808 100.96L104.148 101.052C104.235 101.075 104.332 101.106 104.439 101.147C104.547 101.187 104.65 101.242 104.748 101.312C104.847 101.381 104.929 101.469 104.993 101.577C105.058 101.685 105.09 101.817 105.09 101.974C105.09 102.155 105.042 102.318 104.948 102.465C104.854 102.611 104.716 102.727 104.536 102.813C104.356 102.899 104.137 102.942 103.88 102.942C103.64 102.942 103.433 102.903 103.257 102.826C103.083 102.748 102.945 102.641 102.845 102.502C102.746 102.364 102.69 102.203 102.677 102.02H103.095C103.106 102.146 103.149 102.251 103.223 102.334C103.298 102.415 103.393 102.477 103.507 102.517C103.623 102.556 103.747 102.576 103.88 102.576C104.035 102.576 104.174 102.551 104.297 102.5C104.42 102.449 104.518 102.378 104.59 102.288C104.661 102.196 104.697 102.09 104.697 101.968C104.697 101.856 104.666 101.766 104.604 101.696C104.542 101.626 104.46 101.57 104.359 101.526C104.258 101.482 104.148 101.444 104.03 101.412L103.618 101.294C103.357 101.219 103.15 101.111 102.997 100.972C102.845 100.832 102.768 100.65 102.768 100.424C102.768 100.237 102.819 100.073 102.92 99.9337C103.023 99.7931 103.16 99.6841 103.332 99.6067C103.506 99.5282 103.699 99.489 103.913 99.489C104.128 99.489 104.32 99.5277 104.488 99.6051C104.656 99.6814 104.789 99.786 104.887 99.919C104.986 100.052 105.039 100.203 105.044 100.372H104.652ZM106.861 102.883V99.5348H107.267V101.026H109.052V99.5348H109.458V102.883H109.052V101.385H107.267V102.883H106.861ZM113.205 100.372C113.186 100.206 113.106 100.078 112.967 99.986C112.827 99.8944 112.656 99.8487 112.453 99.8487C112.305 99.8487 112.175 99.8726 112.064 99.9206C111.954 99.9686 111.868 100.035 111.806 100.118C111.745 100.202 111.714 100.298 111.714 100.405C111.714 100.494 111.736 100.571 111.778 100.635C111.822 100.698 111.877 100.751 111.945 100.794C112.012 100.835 112.083 100.869 112.157 100.897C112.232 100.923 112.3 100.944 112.362 100.96L112.702 101.052C112.789 101.075 112.886 101.106 112.993 101.147C113.101 101.187 113.204 101.242 113.302 101.312C113.401 101.381 113.483 101.469 113.547 101.577C113.611 101.685 113.644 101.817 113.644 101.974C113.644 102.155 113.596 102.318 113.501 102.465C113.408 102.611 113.27 102.727 113.089 102.813C112.909 102.899 112.691 102.942 112.434 102.942C112.194 102.942 111.986 102.903 111.811 102.826C111.636 102.748 111.499 102.641 111.399 102.502C111.3 102.364 111.243 102.203 111.23 102.02H111.649C111.66 102.146 111.702 102.251 111.776 102.334C111.852 102.415 111.946 102.477 112.061 102.517C112.176 102.556 112.301 102.576 112.434 102.576C112.588 102.576 112.727 102.551 112.851 102.5C112.974 102.449 113.071 102.378 113.143 102.288C113.215 102.196 113.251 102.09 113.251 101.968C113.251 101.856 113.22 101.766 113.158 101.696C113.096 101.626 113.014 101.57 112.913 101.526C112.811 101.482 112.702 101.444 112.584 101.412L112.172 101.294C111.911 101.219 111.703 101.111 111.551 100.972C111.398 100.832 111.322 100.65 111.322 100.424C111.322 100.237 111.373 100.073 111.474 99.9337C111.576 99.7931 111.714 99.6841 111.886 99.6067C112.059 99.5282 112.253 99.489 112.466 99.489C112.682 99.489 112.874 99.5277 113.042 99.6051C113.21 99.6814 113.343 99.786 113.441 99.919C113.54 100.052 113.592 100.203 113.598 100.372H113.205ZM117.612 99.5348H118.018V101.752C118.018 101.981 117.964 102.185 117.856 102.365C117.749 102.544 117.598 102.685 117.403 102.788C117.208 102.891 116.979 102.942 116.716 102.942C116.454 102.942 116.225 102.891 116.03 102.788C115.835 102.685 115.683 102.544 115.575 102.365C115.468 102.185 115.415 101.981 115.415 101.752V99.5348H115.821V101.719C115.821 101.882 115.857 102.028 115.928 102.156C116 102.282 116.103 102.382 116.236 102.455C116.37 102.527 116.53 102.563 116.716 102.563C116.903 102.563 117.063 102.527 117.197 102.455C117.331 102.382 117.434 102.282 117.505 102.156C117.576 102.028 117.612 101.882 117.612 101.719V99.5348ZM120.338 99.5348V102.883H119.932V99.5348H120.338ZM122.073 99.8944V99.5348H124.584V99.8944H123.531V102.883H123.126V99.8944H122.073ZM126.315 102.883V99.5348H128.335V99.8944H126.72V101.026H128.231V101.385H126.72V102.523H128.362V102.883H126.315Z" fill="#94A3B8"/>
</g>
<rect x="29.7834" y="27.5664" width="161.966" height="97.6587" rx="8.22125" stroke="#E2E8F0" stroke-width="0.6577" shape-rendering="crispEdges"/>
</g>
<rect x="182.5" y="22.5" width="18.22" height="18.22" rx="9.11" fill="#16A34A"/>
<path d="M191.635 35.2023C191.2 35.2023 190.812 35.1277 190.472 34.9784C190.134 34.829 189.865 34.6215 189.665 34.3558C189.467 34.0879 189.36 33.7772 189.342 33.4237H190.172C190.19 33.641 190.264 33.8288 190.396 33.9869C190.528 34.1428 190.7 34.2636 190.913 34.3492C191.126 34.4349 191.362 34.4777 191.621 34.4777C191.911 34.4777 192.168 34.4272 192.392 34.3262C192.616 34.2252 192.792 34.0846 192.919 33.9046C193.047 33.7245 193.11 33.5159 193.11 33.2787C193.11 33.0306 193.049 32.8121 192.926 32.6232C192.803 32.4322 192.623 32.2829 192.386 32.1753C192.148 32.0677 191.859 32.0139 191.516 32.0139H190.976V31.2892H191.516C191.784 31.2892 192.019 31.2409 192.221 31.1443C192.425 31.0477 192.584 30.9115 192.698 30.7359C192.815 30.5602 192.873 30.3538 192.873 30.1166C192.873 29.8882 192.823 29.6895 192.722 29.5204C192.621 29.3513 192.478 29.2196 192.293 29.1252C192.111 29.0307 191.896 28.9835 191.648 28.9835C191.415 28.9835 191.195 29.0264 190.989 29.112C190.785 29.1954 190.618 29.3173 190.488 29.4776C190.359 29.6357 190.288 29.8268 190.277 30.0507H189.487C189.5 29.6972 189.607 29.3876 189.806 29.1219C190.006 28.854 190.268 28.6454 190.59 28.496C190.915 28.3467 191.272 28.2721 191.661 28.2721C192.078 28.2721 192.436 28.3566 192.735 28.5257C193.033 28.6926 193.263 28.9133 193.423 29.1878C193.583 29.4622 193.664 29.7587 193.664 30.0771C193.664 30.457 193.564 30.7809 193.364 31.0488C193.166 31.3167 192.897 31.5022 192.557 31.6054V31.6581C192.983 31.7284 193.316 31.9096 193.555 32.2016C193.794 32.4915 193.914 32.8505 193.914 33.2787C193.914 33.6454 193.814 33.9748 193.614 34.2669C193.417 34.5567 193.146 34.7851 192.804 34.952C192.461 35.1189 192.072 35.2023 191.635 35.2023Z" fill="white"/>
<defs>
<filter id="filter0_d_4_7280" x="0.515793" y="0.929552" width="220.502" height="156.194" filterUnits="userSpaceOnUse" color-interpolation-filters="sRGB">
<feFlood flood-opacity="0" result="BackgroundImageFix"/>
<feColorMatrix in="SourceAlpha" type="matrix" values="0 0 0 0 0 0 0 0 0 0 0 0 0 0 0 0 0 0 127 0" result="hardAlpha"/>
<feOffset dy="2.6308"/>
<feGaussianBlur stdDeviation="14.4694"/>
<feComposite in2="hardAlpha" operator="out"/>
<feColorMatrix type="matrix" values="0 0 0 0 0.392157 0 0 0 0 0.454902 0 0 0 0 0.545098 0 0 0 0.3 0"/>
<feBlend mode="normal" in2="BackgroundImageFix" result="effect1_dropShadow_4_7280"/>
<feBlend mode="normal" in="SourceGraphic" in2="effect1_dropShadow_4_7280" result="shape"/>
</filter>
<filter id="filter1_d_4_7280" x="25.5084" y="25.9221" width="170.516" height="106.209" filterUnits="userSpaceOnUse" color-interpolation-filters="sRGB">
<feFlood flood-opacity="0" result="BackgroundImageFix"/>
<feColorMatrix in="SourceAlpha" type="matrix" values="0 0 0 0 0 0 0 0 0 0 0 0 0 0 0 0 0 0 127 0" result="hardAlpha"/>
<feOffset dy="2.6308"/>
<feGaussianBlur stdDeviation="1.9731"/>
<feComposite in2="hardAlpha" operator="out"/>
<feColorMatrix type="matrix" values="0 0 0 0 0.0479167 0 0 0 0 0.124569 0 0 0 0 0.25 0 0 0 0.1 0"/>
<feBlend mode="normal" in2="BackgroundImageFix" result="effect1_dropShadow_4_7280"/>
<feBlend mode="normal" in="SourceGraphic" in2="effect1_dropShadow_4_7280" result="shape"/>
</filter>
<filter id="filter2_ddi_4_7280" x="21.1135" y="20.1483" width="180.175" height="80.0009" filterUnits="userSpaceOnUse" color-interpolation-filters="sRGB">
<feFlood flood-opacity="0" result="BackgroundImageFix"/>
<feColorMatrix in="SourceAlpha" type="matrix" values="0 0 0 0 0 0 0 0 0 0 0 0 0 0 0 0 0 0 127 0" result="hardAlpha"/>
<feOffset dy="0.6577"/>
<feComposite in2="hardAlpha" operator="out"/>
<feColorMatrix type="matrix" values="0 0 0 0 0.0479167 0 0 0 0 0.124569 0 0 0 0 0.25 0 0 0 0.06 0"/>
<feBlend mode="normal" in2="BackgroundImageFix" result="effect1_dropShadow_4_7280"/>
<feColorMatrix in="SourceAlpha" type="matrix" values="0 0 0 0 0 0 0 0 0 0 0 0 0 0 0 0 0 0 127 0" result="hardAlpha"/>
<feOffset dy="2.6308"/>
<feGaussianBlur stdDeviation="3.9462"/>
<feComposite in2="hardAlpha" operator="out"/>
<feColorMatrix type="matrix" values="0 0 0 0 0.392157 0 0 0 0 0.454902 0 0 0 0 0.545098 0 0 0 0.2 0"/>
<feBlend mode="normal" in2="effect1_dropShadow_4_7280" result="effect2_dropShadow_4_7280"/>
<feBlend mode="normal" in="SourceGraphic" in2="effect2_dropShadow_4_7280" result="shape"/>
<feColorMatrix in="SourceAlpha" type="matrix" values="0 0 0 0 0 0 0 0 0 0 0 0 0 0 0 0 0 0 127 0" result="hardAlpha"/>
<feOffset dy="-5.2616"/>
<feGaussianBlur stdDeviation="0.32885"/>
<feComposite in2="hardAlpha" operator="arithmetic" k2="-1" k3="1"/>
<feColorMatrix type="matrix" values="0 0 0 0 0.392157 0 0 0 0 0.454902 0 0 0 0 0.545098 0 0 0 0.09 0"/>
<feBlend mode="normal" in2="shape" result="effect3_innerShadow_4_7280"/>
</filter>
<clipPath id="clip0_4_7280">
<rect x="29.4546" y="27.2375" width="162.624" height="98.3164" rx="8.5501" fill="white"/>
</clipPath>
</defs>
</svg>
