<svg width="65" height="21" viewBox="0 0 65 21" fill="none" xmlns="http://www.w3.org/2000/svg">
<path d="M25.9122 14.4658V3.02993H27.9078L32.1905 8.84765H31.2387L35.4293 3.02993H37.4249V14.4658H35.3219V5.40921L36.1355 5.60876L31.7913 11.3958H31.5457L27.3091 5.60876L27.9999 5.40921V14.4658H25.9122ZM43.098 14.65C42.2383 14.65 41.4862 14.4556 40.8415 14.0667C40.1968 13.6778 39.6953 13.1508 39.3372 12.4856C38.979 11.8205 38.7999 11.0837 38.7999 10.2752C38.7999 9.43608 38.979 8.69415 39.3372 8.04944C39.7056 7.3945 40.2019 6.87771 40.8261 6.49907C41.4606 6.12044 42.1667 5.93112 42.9445 5.93112C43.5994 5.93112 44.1725 6.03857 44.6637 6.25347C45.1651 6.46837 45.5898 6.76514 45.9377 7.14378C46.2857 7.52242 46.5517 7.95734 46.736 8.44855C46.9202 8.92952 47.0123 9.45143 47.0123 10.0143C47.0123 10.1575 47.002 10.3059 46.9816 10.4594C46.9713 10.6129 46.9457 10.746 46.9048 10.8585H40.4577V9.32351H45.7689L44.8172 10.045C44.9093 9.57423 44.8837 9.15466 44.7404 8.78625C44.6074 8.41785 44.3823 8.12619 44.065 7.91129C43.758 7.69639 43.3845 7.58894 42.9445 7.58894C42.5249 7.58894 42.1514 7.69639 41.8239 7.91129C41.4964 8.11596 41.2457 8.42296 41.0717 8.8323C40.908 9.23141 40.8466 9.7175 40.8875 10.2906C40.8466 10.8022 40.9131 11.2576 41.0871 11.6567C41.2713 12.0456 41.5374 12.3475 41.8853 12.5624C42.2435 12.7773 42.6528 12.8848 43.1133 12.8848C43.5738 12.8848 43.9627 12.7875 44.2799 12.5931C44.6074 12.3987 44.8632 12.1377 45.0474 11.8102L46.6746 12.6084C46.5108 13.0076 46.255 13.3606 45.907 13.6676C45.5591 13.9746 45.1446 14.2151 44.6637 14.3891C44.1929 14.563 43.671 14.65 43.098 14.65ZM51.4071 14.65C50.5168 14.65 49.739 14.4402 49.0739 14.0207C48.4189 13.5909 47.9686 13.0127 47.723 12.2861L49.2274 11.5646C49.4423 12.0354 49.739 12.4038 50.1177 12.6698C50.5065 12.9359 50.9363 13.069 51.4071 13.069C51.7755 13.069 52.0671 12.9871 52.282 12.8234C52.4969 12.6596 52.6044 12.4447 52.6044 12.1786C52.6044 12.0149 52.5583 11.8819 52.4662 11.7795C52.3844 11.667 52.2667 11.5749 52.1132 11.5032C51.9699 11.4214 51.8113 11.3548 51.6373 11.3037L50.2712 10.9199C49.5651 10.7153 49.0278 10.4031 48.6594 9.98357C48.3012 9.56399 48.1221 9.06767 48.1221 8.4946C48.1221 7.98293 48.2501 7.53777 48.5059 7.15913C48.772 6.77026 49.1353 6.46837 49.5958 6.25347C50.0665 6.03857 50.6038 5.93112 51.2075 5.93112C51.9955 5.93112 52.6914 6.12044 53.2952 6.49907C53.8989 6.87771 54.3287 7.40985 54.5846 8.09549L53.0496 8.81695C52.9063 8.43831 52.6658 8.13643 52.3281 7.91129C51.9904 7.68616 51.6118 7.57359 51.1922 7.57359C50.8545 7.57359 50.5884 7.65034 50.394 7.80384C50.1995 7.95734 50.1023 8.15689 50.1023 8.4025C50.1023 8.556 50.1433 8.68903 50.2251 8.8016C50.307 8.91417 50.4196 9.00627 50.5628 9.07791C50.7163 9.14954 50.8903 9.21606 51.0847 9.27746L52.4202 9.67656C53.1058 9.88123 53.6329 10.1882 54.0013 10.5976C54.3799 11.0069 54.5692 11.5084 54.5692 12.1019C54.5692 12.6033 54.4362 13.0485 54.1701 13.4374C53.904 13.816 53.5356 14.1128 53.0649 14.3277C52.5942 14.5426 52.0416 14.65 51.4071 14.65ZM55.8075 14.4658V2.84573H57.8184V7.75779L57.5421 7.46614C57.7366 6.9647 58.0538 6.58606 58.4938 6.33022C58.9441 6.06415 59.466 5.93112 60.0595 5.93112C60.6736 5.93112 61.2159 6.06415 61.6867 6.33022C62.1676 6.59629 62.5412 6.96981 62.8072 7.45079C63.0733 7.92153 63.2063 8.46902 63.2063 9.09326V14.4658H61.1955V9.56911C61.1955 9.20071 61.1238 8.88347 60.9806 8.6174C60.8373 8.35133 60.6377 8.14666 60.3819 8.00339C60.1363 7.84989 59.8446 7.77314 59.5069 7.77314C59.1795 7.77314 58.8878 7.84989 58.632 8.00339C58.3761 8.14666 58.1766 8.35133 58.0333 8.6174C57.8901 8.88347 57.8184 9.20071 57.8184 9.56911V14.4658H55.8075Z" fill="#64748B"/>
<path d="M26.7422 20.0287C26.526 20.0287 26.3296 19.9876 26.153 19.9054C25.9764 19.8232 25.8272 19.7135 25.7054 19.5765C25.5836 19.4365 25.4968 19.2827 25.4451 19.1152L25.7739 18.9919C25.8531 19.2233 25.9764 19.3999 26.1439 19.5217C26.3113 19.6405 26.5108 19.6998 26.7422 19.6998C26.8883 19.6998 27.0162 19.677 27.1258 19.6313C27.2385 19.5826 27.3253 19.5156 27.3862 19.4304C27.4471 19.3451 27.4775 19.2462 27.4775 19.1335C27.4775 18.966 27.4318 18.8366 27.3405 18.7453C27.2491 18.6539 27.1182 18.5839 26.9477 18.5352L26.3357 18.3525C26.0951 18.2824 25.9094 18.1652 25.7785 18.0008C25.6506 17.8364 25.5866 17.6491 25.5866 17.439C25.5866 17.2594 25.6308 17.101 25.7191 16.964C25.8074 16.8239 25.9277 16.7143 26.0799 16.6352C26.2352 16.556 26.4103 16.5164 26.6052 16.5164C26.8092 16.5164 26.9918 16.5545 27.1532 16.6306C27.3177 16.7037 27.4562 16.8011 27.5689 16.9229C27.6815 17.0447 27.7622 17.1802 27.8109 17.3294L27.4912 17.4573C27.4181 17.2563 27.304 17.1041 27.1487 17.0006C26.9964 16.897 26.8168 16.8453 26.6097 16.8453C26.4788 16.8453 26.3631 16.8681 26.2626 16.9138C26.1652 16.9594 26.089 17.0249 26.0342 17.1102C25.9794 17.1954 25.952 17.2959 25.952 17.4116C25.952 17.5517 25.9962 17.678 26.0845 17.7907C26.1728 17.9003 26.3083 17.9825 26.491 18.0373L27.0299 18.1972C27.2979 18.2764 27.5003 18.3905 27.6374 18.5397C27.7744 18.6889 27.8429 18.8762 27.8429 19.1015C27.8429 19.2842 27.7957 19.4456 27.7013 19.5857C27.61 19.7227 27.4806 19.8308 27.3131 19.9099C27.1487 19.9891 26.9584 20.0287 26.7422 20.0287ZM36.0937 20.0287C35.8531 20.0287 35.6415 19.9784 35.4588 19.878C35.2761 19.7775 35.1346 19.6405 35.0341 19.4669C34.9336 19.2903 34.8833 19.0893 34.8833 18.864V16.5712H35.2487V18.864C35.2487 19.0284 35.2837 19.1731 35.3538 19.2979C35.4269 19.4197 35.5258 19.5156 35.6507 19.5857C35.7785 19.6526 35.9262 19.6861 36.0937 19.6861C36.2612 19.6861 36.4073 19.6526 36.5322 19.5857C36.66 19.5156 36.759 19.4197 36.829 19.2979C36.9021 19.1731 36.9386 19.0284 36.9386 18.864V16.5712H37.304V18.864C37.304 19.0893 37.2538 19.2903 37.1533 19.4669C37.0528 19.6405 36.9112 19.7775 36.7285 19.878C36.5489 19.9784 36.3373 20.0287 36.0937 20.0287ZM44.4436 19.9739V16.5712H44.809V19.9739H44.4436ZM52.55 19.9739V16.9138H51.6091V16.5712H53.8471V16.9138H52.9154V19.9739H52.55ZM60.6466 19.9739V16.5712H62.8389V16.9138H61.012V18.0967H62.7475V18.4393H61.012V19.6313H62.8389V19.9739H60.6466Z" fill="#64748B"/>
<path fill-rule="evenodd" clip-rule="evenodd" d="M3.79428 5.51217C3.61518 5.40877 3.5236 5.20551 3.5236 4.9987C3.5236 4.20929 3.64665 3.247 4.3303 2.85229L8.29357 0.564096C9.53616 -0.153313 11.0671 -0.153313 12.3097 0.564096L16.8124 3.16372C17.2731 3.42974 17.4274 4.01116 17.4274 4.54321C17.4274 4.8405 17.308 5.14094 17.0506 5.28959L12.8152 7.73485C12.0975 8.14926 11.1896 8.00553 10.3608 8.00553C9.45633 8.00553 8.45427 8.20262 7.67101 7.7504L3.79428 5.51217ZM0.796874 7.21102C0.796874 7.16372 0.841654 7.12975 0.887956 7.13941C1.03282 7.16963 1.18295 7.18551 1.33678 7.18551C2.1382 7.18551 3.01257 7.05923 3.70662 7.45994L8.04879 9.96689C8.1285 10.0129 8.17394 10.1003 8.17394 10.1923C8.17394 11.7044 9.43333 13.139 9.43333 14.651L9.43333 19.4112C9.43333 20.0414 8.83936 20.5108 8.29357 20.1957L2.80493 17.0268C1.56234 16.3094 0.796875 14.9836 0.796875 13.5488L0.796874 7.21102ZM12.5476 10.1923C12.5476 11.7444 11.2127 13.2153 11.2127 14.7674L11.2127 19.4453C11.2127 20.0505 11.7856 20.4983 12.3097 20.1957L17.7983 17.0268C19.0409 16.3094 19.8064 14.9836 19.8064 13.5488L19.8064 7.21102C19.8064 7.10196 19.802 6.99353 19.7932 6.88595C19.7859 6.79514 19.7053 6.73003 19.6142 6.73003C18.9067 6.73003 18.1448 6.65621 17.5321 7.00997L12.7828 9.75193C12.6287 9.84093 12.5476 10.0143 12.5476 10.1923Z" fill="#64748B"/>
</svg>
