<svg width="26" height="28" viewBox="0 0 26 28" fill="none" xmlns="http://www.w3.org/2000/svg">
<g clip-path="url(#clip0_4272_80968)">
<path d="M20.001 0L24.667 4.66699V27C24.667 27.5523 24.2193 28 23.667 28H2.33398C1.7817 28 1.33398 27.5523 1.33398 27V1C1.33398 0.447715 1.7817 0 2.33398 0H20.001Z" fill="#E9F0FA"/>
<path d="M24.666 4.66699H20V0L24.666 4.66699Z" fill="#C2CDDE"/>
</g>
<rect x="0.166016" y="11.666" width="25.6667" height="11.6667" rx="1" fill="#EF4444"/>
<path d="M5.66584 20.5V14.6818H7.96129C8.40258 14.6818 8.77853 14.7661 9.08913 14.9347C9.39974 15.1013 9.63648 15.3333 9.79936 15.6307C9.96413 15.9261 10.0465 16.267 10.0465 16.6534C10.0465 17.0398 9.96319 17.3807 9.79652 17.6761C9.62985 17.9716 9.38838 18.2017 9.07209 18.3665C8.75769 18.5312 8.37701 18.6136 7.93004 18.6136H6.46697V17.6278H7.73118C7.96792 17.6278 8.163 17.5871 8.31641 17.5057C8.47171 17.4223 8.58724 17.3078 8.663 17.1619C8.74065 17.0142 8.77947 16.8447 8.77947 16.6534C8.77947 16.4602 8.74065 16.2917 8.663 16.1477C8.58724 16.0019 8.47171 15.8892 8.31641 15.8097C8.1611 15.7282 7.96413 15.6875 7.7255 15.6875H6.89595V20.5H5.66584ZM12.908 20.5H10.8455V14.6818H12.9251C13.5103 14.6818 14.0141 14.7983 14.4364 15.0312C14.8588 15.2623 15.1836 15.5947 15.4109 16.0284C15.64 16.4621 15.7546 16.9811 15.7546 17.5852C15.7546 18.1913 15.64 18.7121 15.4109 19.1477C15.1836 19.5833 14.8569 19.9176 14.4308 20.1506C14.0065 20.3835 13.4989 20.5 12.908 20.5ZM12.0756 19.446H12.8569C13.2205 19.446 13.5264 19.3816 13.7745 19.2528C14.0245 19.1222 14.212 18.9205 14.337 18.6477C14.4639 18.3731 14.5273 18.0189 14.5273 17.5852C14.5273 17.1553 14.4639 16.804 14.337 16.5312C14.212 16.2585 14.0254 16.0578 13.7773 15.929C13.5292 15.8002 13.2234 15.7358 12.8597 15.7358H12.0756V19.446ZM16.6658 20.5V14.6818H20.5181V15.696H17.896V17.0824H20.2624V18.0966H17.896V20.5H16.6658Z" fill="white"/>
<defs>
<clipPath id="clip0_4272_80968">
<rect width="23.3333" height="28" fill="white" transform="translate(1.33398)"/>
</clipPath>
</defs>
</svg>
