<svg width="352" height="213" viewBox="0 0 352 213" fill="none" xmlns="http://www.w3.org/2000/svg">
<g clip-path="url(#clip0_4_7250)">
<path d="M0 12C0 5.37258 5.37258 0 12 0H340C346.627 0 352 5.37258 352 12V201C352 207.627 346.627 213 340 213H12C5.37259 213 0 207.627 0 201V12Z" fill="#F8FAFC"/>
<rect x="51" y="113.222" width="96.2075" height="28.3789" rx="14.1894" fill="#86EFAC"/>
<g filter="url(#filter0_d_4_7250)">
<path fill-rule="evenodd" clip-rule="evenodd" d="M77.0143 127.412C77.0143 133.942 71.7203 139.236 65.1898 139.236C58.6593 139.236 53.3652 133.942 53.3652 127.412C53.3652 120.881 58.6593 115.587 65.1898 115.587C71.7203 115.587 77.0143 120.881 77.0143 127.412ZM69.9555 123.828C70.3018 124.175 70.3018 124.736 69.9555 125.083L64.0432 130.995C63.6968 131.341 63.1353 131.341 62.789 130.995L60.4241 128.63C60.0778 128.284 60.0778 127.722 60.4241 127.376C60.7704 127.029 61.3319 127.029 61.6783 127.376L63.4161 129.114L66.0587 126.471L68.7013 123.828C69.0476 123.482 69.6091 123.482 69.9555 123.828Z" fill="#DCFCE7"/>
</g>
<path d="M90.4111 124.529C90.371 124.153 90.2019 123.861 89.9039 123.652C89.6087 123.443 89.2248 123.338 88.7519 123.338C88.4195 123.338 88.1344 123.388 87.8966 123.488C87.6587 123.589 87.4768 123.725 87.3507 123.897C87.2246 124.069 87.1601 124.265 87.1573 124.486C87.1573 124.669 87.1988 124.828 87.2819 124.963C87.3679 125.097 87.4839 125.212 87.6301 125.307C87.7762 125.398 87.9381 125.476 88.1158 125.539C88.2935 125.602 88.4726 125.655 88.6531 125.698L89.4784 125.904C89.8108 125.981 90.1303 126.086 90.4369 126.218C90.7464 126.35 91.0229 126.516 91.2665 126.716C91.5129 126.917 91.7078 127.159 91.851 127.443C91.9943 127.727 92.066 128.059 92.066 128.44C92.066 128.956 91.9342 129.41 91.6705 129.803C91.4069 130.192 91.0258 130.498 90.5272 130.718C90.0314 130.936 89.4311 131.045 88.7262 131.045C88.0413 131.045 87.4467 130.939 86.9423 130.727C86.4409 130.515 86.0483 130.205 85.7646 129.798C85.4838 129.391 85.3319 128.896 85.309 128.311H86.8779C86.9008 128.618 86.9954 128.873 87.1616 129.076C87.3278 129.28 87.5441 129.432 87.8106 129.532C88.08 129.632 88.3809 129.682 88.7133 129.682C89.06 129.682 89.3637 129.631 89.6245 129.528C89.8881 129.422 90.0945 129.275 90.2435 129.089C90.3925 128.9 90.4684 128.679 90.4713 128.427C90.4684 128.198 90.4011 128.009 90.2693 127.86C90.1374 127.708 89.9526 127.582 89.7148 127.482C89.4798 127.378 89.2047 127.287 88.8895 127.206L87.888 126.949C87.163 126.762 86.5899 126.48 86.1686 126.102C85.7503 125.721 85.5411 125.215 85.5411 124.584C85.5411 124.066 85.6815 123.612 85.9623 123.222C86.246 122.832 86.6314 122.53 87.1186 122.315C87.6057 122.097 88.1573 121.988 88.7734 121.988C89.3981 121.988 89.9455 122.097 90.4154 122.315C90.8882 122.53 91.2593 122.829 91.5287 123.213C91.798 123.594 91.937 124.033 91.9456 124.529H90.4111ZM97.3849 128.135V124.309H98.9409V130.912H97.4321V129.738H97.3634C97.2144 130.108 96.9694 130.41 96.6284 130.645C96.2902 130.88 95.8733 130.998 95.3775 130.998C94.9448 130.998 94.5623 130.902 94.2299 130.71C93.9003 130.515 93.6424 130.232 93.4562 129.863C93.2699 129.49 93.1768 129.04 93.1768 128.513V124.309H94.7328V128.272C94.7328 128.691 94.8474 129.023 95.0767 129.27C95.3059 129.516 95.6068 129.639 95.9793 129.639C96.2085 129.639 96.4306 129.583 96.6455 129.472C96.8605 129.36 97.0367 129.194 97.1742 128.973C97.3147 128.75 97.3849 128.47 97.3849 128.135ZM103.179 131.041C102.52 131.041 101.954 130.896 101.481 130.606C101.011 130.317 100.648 129.917 100.393 129.407C100.141 128.894 100.015 128.304 100.015 127.636C100.015 126.966 100.144 126.374 100.402 125.861C100.66 125.345 101.024 124.944 101.494 124.658C101.967 124.368 102.525 124.223 103.17 124.223C103.706 124.223 104.18 124.322 104.593 124.52C105.008 124.715 105.339 124.991 105.586 125.35C105.832 125.705 105.973 126.12 106.007 126.596H104.52C104.46 126.278 104.316 126.013 104.09 125.801C103.866 125.586 103.567 125.479 103.192 125.479C102.874 125.479 102.594 125.564 102.353 125.736C102.113 125.905 101.925 126.149 101.79 126.467C101.659 126.785 101.593 127.166 101.593 127.61C101.593 128.06 101.659 128.447 101.79 128.771C101.922 129.092 102.107 129.34 102.345 129.515C102.586 129.687 102.868 129.773 103.192 129.773C103.421 129.773 103.626 129.73 103.806 129.644C103.99 129.555 104.143 129.427 104.266 129.261C104.389 129.095 104.474 128.893 104.52 128.655H106.007C105.97 129.122 105.832 129.536 105.594 129.897C105.357 130.255 105.033 130.536 104.623 130.74C104.213 130.94 103.732 131.041 103.179 131.041ZM109.923 131.041C109.263 131.041 108.697 130.896 108.225 130.606C107.755 130.317 107.392 129.917 107.137 129.407C106.885 128.894 106.759 128.304 106.759 127.636C106.759 126.966 106.888 126.374 107.146 125.861C107.404 125.345 107.768 124.944 108.238 124.658C108.71 124.368 109.269 124.223 109.914 124.223C110.45 124.223 110.924 124.322 111.337 124.52C111.752 124.715 112.083 124.991 112.33 125.35C112.576 125.705 112.716 126.12 112.751 126.596H111.264C111.203 126.278 111.06 126.013 110.834 125.801C110.61 125.586 110.311 125.479 109.935 125.479C109.617 125.479 109.338 125.564 109.097 125.736C108.857 125.905 108.669 126.149 108.534 126.467C108.402 126.785 108.336 127.166 108.336 127.61C108.336 128.06 108.402 128.447 108.534 128.771C108.666 129.092 108.851 129.34 109.089 129.515C109.329 129.687 109.612 129.773 109.935 129.773C110.165 129.773 110.37 129.73 110.55 129.644C110.733 129.555 110.887 129.427 111.01 129.261C111.133 129.095 111.218 128.893 111.264 128.655H112.751C112.714 129.122 112.576 129.536 112.338 129.897C112.1 130.255 111.777 130.536 111.367 130.74C110.957 130.94 110.476 131.041 109.923 131.041ZM116.709 131.041C116.047 131.041 115.476 130.903 114.994 130.628C114.516 130.35 114.147 129.957 113.89 129.45C113.632 128.94 113.503 128.34 113.503 127.649C113.503 126.97 113.632 126.374 113.89 125.861C114.15 125.345 114.514 124.944 114.981 124.658C115.448 124.368 115.997 124.223 116.628 124.223C117.035 124.223 117.419 124.289 117.78 124.421C118.144 124.55 118.464 124.751 118.742 125.023C119.023 125.295 119.244 125.642 119.404 126.063C119.565 126.481 119.645 126.98 119.645 127.559V128.036H114.233V126.987H118.154C118.151 126.689 118.086 126.424 117.96 126.192C117.834 125.957 117.658 125.772 117.431 125.638C117.208 125.503 116.947 125.436 116.649 125.436C116.331 125.436 116.052 125.513 115.811 125.668C115.57 125.82 115.383 126.02 115.248 126.269C115.116 126.516 115.049 126.787 115.046 127.082V127.997C115.046 128.381 115.116 128.711 115.256 128.986C115.397 129.258 115.593 129.467 115.845 129.614C116.097 129.757 116.393 129.828 116.731 129.828C116.957 129.828 117.162 129.797 117.345 129.734C117.529 129.668 117.688 129.572 117.823 129.446C117.957 129.32 118.059 129.164 118.128 128.977L119.581 129.141C119.489 129.525 119.314 129.86 119.056 130.147C118.801 130.43 118.474 130.651 118.076 130.808C117.678 130.963 117.222 131.041 116.709 131.041ZM125.938 126.054L124.519 126.209C124.479 126.066 124.409 125.931 124.308 125.805C124.211 125.679 124.079 125.577 123.913 125.5C123.747 125.423 123.543 125.384 123.303 125.384C122.979 125.384 122.707 125.454 122.486 125.595C122.268 125.735 122.161 125.917 122.164 126.14C122.161 126.332 122.231 126.489 122.374 126.609C122.52 126.729 122.761 126.828 123.096 126.906L124.222 127.146C124.847 127.281 125.311 127.494 125.615 127.787C125.922 128.079 126.077 128.462 126.079 128.934C126.077 129.35 125.955 129.717 125.714 130.035C125.476 130.35 125.145 130.596 124.721 130.774C124.297 130.952 123.81 131.041 123.26 131.041C122.452 131.041 121.801 130.872 121.308 130.533C120.815 130.192 120.522 129.718 120.427 129.111L121.944 128.964C122.013 129.262 122.159 129.487 122.383 129.639C122.606 129.791 122.897 129.867 123.255 129.867C123.625 129.867 123.922 129.791 124.145 129.639C124.371 129.487 124.485 129.3 124.485 129.076C124.485 128.887 124.412 128.731 124.265 128.608C124.122 128.484 123.899 128.39 123.595 128.324L122.469 128.088C121.835 127.956 121.367 127.734 121.063 127.421C120.759 127.106 120.609 126.708 120.612 126.226C120.609 125.82 120.719 125.467 120.943 125.169C121.169 124.868 121.483 124.636 121.884 124.473C122.288 124.307 122.754 124.223 123.281 124.223C124.055 124.223 124.664 124.388 125.108 124.718C125.555 125.047 125.831 125.493 125.938 126.054ZM132.339 126.054L130.92 126.209C130.88 126.066 130.81 125.931 130.709 125.805C130.612 125.679 130.48 125.577 130.314 125.5C130.148 125.423 129.944 125.384 129.704 125.384C129.38 125.384 129.108 125.454 128.887 125.595C128.669 125.735 128.562 125.917 128.565 126.14C128.562 126.332 128.632 126.489 128.775 126.609C128.921 126.729 129.162 126.828 129.497 126.906L130.623 127.146C131.248 127.281 131.712 127.494 132.016 127.787C132.323 128.079 132.478 128.462 132.48 128.934C132.478 129.35 132.356 129.717 132.115 130.035C131.877 130.35 131.546 130.596 131.122 130.774C130.698 130.952 130.211 131.041 129.661 131.041C128.853 131.041 128.202 130.872 127.709 130.533C127.216 130.192 126.923 129.718 126.828 129.111L128.345 128.964C128.414 129.262 128.56 129.487 128.784 129.639C129.007 129.791 129.298 129.867 129.656 129.867C130.026 129.867 130.323 129.791 130.546 129.639C130.772 129.487 130.886 129.3 130.886 129.076C130.886 128.887 130.813 128.731 130.666 128.608C130.523 128.484 130.3 128.39 129.996 128.324L128.87 128.088C128.236 127.956 127.768 127.734 127.464 127.421C127.16 127.106 127.01 126.708 127.013 126.226C127.01 125.82 127.12 125.467 127.344 125.169C127.57 124.868 127.884 124.636 128.285 124.473C128.689 124.307 129.155 124.223 129.682 124.223C130.456 124.223 131.065 124.388 131.509 124.718C131.956 125.047 132.233 125.493 132.339 126.054Z" fill="#15803D"/>
<g filter="url(#filter1_d_4_7250)">
<path d="M175.853 192.722C175.853 192.722 243.927 160.184 243.927 33.1253C190.656 16.7361 156.767 15.802 107.779 33.1253C107.779 160.65 175.853 192.722 175.853 192.722Z" fill="white"/>
<g filter="url(#filter2_ddi_4_7250)">
<path d="M175.853 182.137C175.853 182.137 235.56 153.598 235.56 42.1565C188.836 27.7817 159.113 26.9624 116.146 42.1565C116.146 154.006 175.853 182.137 175.853 182.137Z" fill="white"/>
</g>
<mask id="path-7-outside-1_4_7250" maskUnits="userSpaceOnUse" x="160.537" y="61.114" width="31" height="66" fill="black">
<rect fill="white" x="160.537" y="61.114" width="31" height="66"/>
<path fill-rule="evenodd" clip-rule="evenodd" d="M175.852 85.7444C180.997 85.7444 185.167 81.5738 185.167 76.4292C185.167 71.2846 180.997 67.114 175.852 67.114C170.708 67.114 166.537 71.2846 166.537 76.4292C166.537 81.5738 170.708 85.7444 175.852 85.7444ZM190.167 76.4292C190.167 83.6561 184.812 89.6322 177.854 90.6056L177.854 121.337V124.337C177.854 125.441 176.958 126.337 175.854 126.337C174.749 126.337 173.854 125.441 173.854 124.337V123.337H167.041C165.936 123.337 165.041 122.441 165.041 121.337C165.041 120.232 165.936 119.337 167.041 119.337H173.854L173.854 90.606C166.894 89.6336 161.537 83.6569 161.537 76.4292C161.537 68.5231 167.946 62.114 175.852 62.114C183.758 62.114 190.167 68.5231 190.167 76.4292Z"/>
</mask>
<g filter="url(#filter3_i_4_7250)">
<path fill-rule="evenodd" clip-rule="evenodd" d="M175.852 85.7444C180.997 85.7444 185.167 81.5738 185.167 76.4292C185.167 71.2846 180.997 67.114 175.852 67.114C170.708 67.114 166.537 71.2846 166.537 76.4292C166.537 81.5738 170.708 85.7444 175.852 85.7444ZM190.167 76.4292C190.167 83.6561 184.812 89.6322 177.854 90.6056L177.854 121.337V124.337C177.854 125.441 176.958 126.337 175.854 126.337C174.749 126.337 173.854 125.441 173.854 124.337V123.337H167.041C165.936 123.337 165.041 122.441 165.041 121.337C165.041 120.232 165.936 119.337 167.041 119.337H173.854L173.854 90.606C166.894 89.6336 161.537 83.6569 161.537 76.4292C161.537 68.5231 167.946 62.114 175.852 62.114C183.758 62.114 190.167 68.5231 190.167 76.4292Z" fill="#F8FAFC"/>
</g>
<path d="M177.854 90.6056L177.784 90.1104L177.354 90.1707V90.6056H177.854ZM177.854 121.337H177.354H177.854ZM173.854 123.337H174.354V122.837H173.854V123.337ZM173.854 119.337V119.837H174.354V119.337H173.854ZM173.854 90.606H174.354V90.171L173.923 90.1108L173.854 90.606ZM184.667 76.4292C184.667 81.2977 180.721 85.2444 175.852 85.2444V86.2444C181.273 86.2444 185.667 81.85 185.667 76.4292H184.667ZM175.852 67.614C180.721 67.614 184.667 71.5607 184.667 76.4292H185.667C185.667 71.0084 181.273 66.614 175.852 66.614V67.614ZM167.037 76.4292C167.037 71.5607 170.984 67.614 175.852 67.614V66.614C170.432 66.614 166.037 71.0084 166.037 76.4292H167.037ZM175.852 85.2444C170.984 85.2444 167.037 81.2977 167.037 76.4292H166.037C166.037 81.85 170.432 86.2444 175.852 86.2444V85.2444ZM177.923 91.1008C185.125 90.0933 190.667 83.9089 190.667 76.4292H189.667C189.667 83.4033 184.499 89.1711 177.784 90.1104L177.923 91.1008ZM178.354 121.337L178.354 90.6056H177.354L177.354 121.337H178.354ZM178.354 124.337V121.337H177.354V124.337H178.354ZM175.854 126.837C177.234 126.837 178.354 125.717 178.354 124.337H177.354C177.354 125.165 176.682 125.837 175.854 125.837V126.837ZM173.354 124.337C173.354 125.717 174.473 126.837 175.854 126.837V125.837C175.025 125.837 174.354 125.165 174.354 124.337H173.354ZM173.354 123.337V124.337H174.354V123.337H173.354ZM173.854 122.837H167.041V123.837H173.854V122.837ZM167.041 122.837C166.213 122.837 165.541 122.165 165.541 121.337H164.541C164.541 122.717 165.66 123.837 167.041 123.837V122.837ZM165.541 121.337C165.541 120.508 166.213 119.837 167.041 119.837V118.837C165.66 118.837 164.541 119.956 164.541 121.337H165.541ZM167.041 119.837H173.854V118.837H167.041V119.837ZM173.354 90.606L173.354 119.337H174.354L174.354 90.606H173.354ZM161.037 76.4292C161.037 83.9098 166.581 90.0948 173.784 91.1011L173.923 90.1108C167.206 89.1724 162.037 83.4041 162.037 76.4292H161.037ZM175.852 61.614C167.67 61.614 161.037 68.247 161.037 76.4292H162.037C162.037 68.7993 168.222 62.614 175.852 62.614V61.614ZM190.667 76.4292C190.667 68.247 184.034 61.614 175.852 61.614V62.614C183.482 62.614 189.667 68.7993 189.667 76.4292H190.667Z" fill="#F1F5F9" mask="url(#path-7-outside-1_4_7250)"/>
</g>
<rect x="215" y="54.2222" width="96.2075" height="28.3789" rx="14.1894" fill="#16A34A"/>
<g filter="url(#filter4_d_4_7250)">
<path fill-rule="evenodd" clip-rule="evenodd" d="M241.014 68.4117C241.014 74.9422 235.72 80.2362 229.19 80.2362C222.659 80.2362 217.365 74.9422 217.365 68.4117C217.365 61.8812 222.659 56.5872 229.19 56.5872C235.72 56.5872 241.014 61.8812 241.014 68.4117ZM233.955 64.8285C234.302 65.1748 234.302 65.7363 233.955 66.0827L228.043 71.9949C227.697 72.3413 227.135 72.3413 226.789 71.9949L224.424 69.63C224.078 69.2837 224.078 68.7222 224.424 68.3758C224.77 68.0295 225.332 68.0295 225.678 68.3758L227.416 70.1136L230.059 67.4711L232.701 64.8285C233.048 64.4821 233.609 64.4821 233.955 64.8285Z" fill="#DCFCE7"/>
</g>
<path d="M254.411 65.5286C254.371 65.1532 254.202 64.8609 253.904 64.6517C253.609 64.4425 253.225 64.3379 252.752 64.3379C252.42 64.3379 252.134 64.3881 251.897 64.4884C251.659 64.5887 251.477 64.7248 251.351 64.8967C251.225 65.0687 251.16 65.265 251.157 65.4856C251.157 65.669 251.199 65.828 251.282 65.9627C251.368 66.0974 251.484 66.212 251.63 66.3066C251.776 66.3983 251.938 66.4757 252.116 66.5387C252.293 66.6017 252.473 66.6548 252.653 66.6977L253.478 66.9041C253.811 66.9814 254.13 67.086 254.437 67.2178C254.746 67.3496 255.023 67.5159 255.266 67.7164C255.513 67.917 255.708 68.1592 255.851 68.4429C255.994 68.7266 256.066 69.059 256.066 69.4401C256.066 69.9559 255.934 70.4101 255.671 70.8026C255.407 71.1924 255.026 71.4975 254.527 71.7182C254.031 71.936 253.431 72.0449 252.726 72.0449C252.041 72.0449 251.447 71.9388 250.942 71.7268C250.441 71.5147 250.048 71.2053 249.765 70.7984C249.484 70.3914 249.332 69.8957 249.309 69.3111H250.878C250.901 69.6177 250.995 69.8728 251.162 70.0762C251.328 70.2797 251.544 70.4316 251.811 70.5319C252.08 70.6321 252.381 70.6823 252.713 70.6823C253.06 70.6823 253.364 70.6307 253.625 70.5276C253.888 70.4215 254.094 70.2754 254.243 70.0891C254.392 69.9 254.468 69.6794 254.471 69.4272C254.468 69.1979 254.401 69.0088 254.269 68.8598C254.137 68.7079 253.953 68.5818 253.715 68.4815C253.48 68.3784 253.205 68.2867 252.889 68.2065L251.888 67.9486C251.163 67.7623 250.59 67.48 250.169 67.1018C249.75 66.7207 249.541 66.2149 249.541 65.5845C249.541 65.0658 249.681 64.6116 249.962 64.2219C250.246 63.8322 250.631 63.5299 251.119 63.3149C251.606 63.0972 252.157 62.9883 252.773 62.9883C253.398 62.9883 253.945 63.0972 254.415 63.3149C254.888 63.5299 255.259 63.8293 255.529 64.2133C255.798 64.5944 255.937 65.0328 255.946 65.5286H254.411ZM261.385 69.1349V65.3094H262.941V71.9116H261.432V70.7382H261.363C261.214 71.1078 260.969 71.4101 260.628 71.6451C260.29 71.8801 259.873 71.9976 259.378 71.9976C258.945 71.9976 258.562 71.9016 258.23 71.7096C257.9 71.5147 257.642 71.2325 257.456 70.8628C257.27 70.4903 257.177 70.0404 257.177 69.5131V65.3094H258.733V69.2724C258.733 69.6908 258.847 70.0232 259.077 70.2697C259.306 70.5161 259.607 70.6393 259.979 70.6393C260.209 70.6393 260.431 70.5834 260.646 70.4717C260.86 70.3599 261.037 70.1937 261.174 69.9731C261.315 69.7496 261.385 69.4702 261.385 69.1349ZM267.179 72.0406C266.52 72.0406 265.954 71.8959 265.481 71.6064C265.011 71.317 264.648 70.9173 264.393 70.4072C264.141 69.8943 264.015 69.304 264.015 68.6363C264.015 67.9657 264.144 67.374 264.402 66.8611C264.66 66.3453 265.024 65.9441 265.494 65.6575C265.967 65.3681 266.525 65.2234 267.17 65.2234C267.706 65.2234 268.18 65.3223 268.593 65.52C269.008 65.7148 269.339 65.9914 269.586 66.3496C269.832 66.7049 269.973 67.1204 270.007 67.5961H268.52C268.46 67.278 268.316 67.0129 268.09 66.8009C267.866 66.586 267.567 66.4785 267.192 66.4785C266.874 66.4785 266.594 66.5645 266.353 66.7364C266.113 66.9055 265.925 67.1491 265.79 67.4671C265.659 67.7852 265.593 68.1663 265.593 68.6105C265.593 69.0604 265.659 69.4472 265.79 69.771C265.922 70.092 266.107 70.3399 266.345 70.5147C266.586 70.6866 266.868 70.7726 267.192 70.7726C267.421 70.7726 267.626 70.7296 267.806 70.6436C267.99 70.5548 268.143 70.4273 268.266 70.2611C268.389 70.0949 268.474 69.8928 268.52 69.655H270.007C269.97 70.1221 269.832 70.5362 269.594 70.8972C269.357 71.2554 269.033 71.5362 268.623 71.7397C268.213 71.9403 267.732 72.0406 267.179 72.0406ZM273.923 72.0406C273.263 72.0406 272.697 71.8959 272.225 71.6064C271.755 71.317 271.392 70.9173 271.137 70.4072C270.885 69.8943 270.759 69.304 270.759 68.6363C270.759 67.9657 270.888 67.374 271.146 66.8611C271.404 66.3453 271.768 65.9441 272.238 65.6575C272.71 65.3681 273.269 65.2234 273.914 65.2234C274.45 65.2234 274.924 65.3223 275.337 65.52C275.752 65.7148 276.083 65.9914 276.33 66.3496C276.576 66.7049 276.716 67.1204 276.751 67.5961H275.264C275.203 67.278 275.06 67.0129 274.834 66.8009C274.61 66.586 274.311 66.4785 273.935 66.4785C273.617 66.4785 273.338 66.5645 273.097 66.7364C272.857 66.9055 272.669 67.1491 272.534 67.4671C272.402 67.7852 272.336 68.1663 272.336 68.6105C272.336 69.0604 272.402 69.4472 272.534 69.771C272.666 70.092 272.851 70.3399 273.089 70.5147C273.329 70.6866 273.612 70.7726 273.935 70.7726C274.165 70.7726 274.37 70.7296 274.55 70.6436C274.733 70.5548 274.887 70.4273 275.01 70.2611C275.133 70.0949 275.218 69.8928 275.264 69.655H276.751C276.714 70.1221 276.576 70.5362 276.338 70.8972C276.1 71.2554 275.777 71.5362 275.367 71.7397C274.957 71.9403 274.476 72.0406 273.923 72.0406ZM280.709 72.0406C280.047 72.0406 279.476 71.903 278.994 71.6279C278.516 71.35 278.147 70.9574 277.89 70.4502C277.632 69.9401 277.503 69.3398 277.503 68.6492C277.503 67.97 277.632 67.374 277.89 66.8611C278.15 66.3453 278.514 65.9441 278.981 65.6575C279.448 65.3681 279.997 65.2234 280.628 65.2234C281.035 65.2234 281.419 65.2893 281.78 65.4211C282.144 65.5501 282.464 65.7507 282.742 66.0229C283.023 66.2951 283.244 66.6419 283.404 67.0631C283.565 67.4815 283.645 67.9801 283.645 68.5589V69.036H278.233V67.9872H282.154C282.151 67.6892 282.086 67.4242 281.96 67.192C281.834 66.9571 281.658 66.7722 281.431 66.6376C281.208 66.5029 280.947 66.4355 280.649 66.4355C280.331 66.4355 280.052 66.5129 279.811 66.6676C279.57 66.8195 279.383 67.0201 279.248 67.2694C279.116 67.5159 279.049 67.7866 279.046 68.0818V68.9973C279.046 69.3813 279.116 69.7109 279.256 69.986C279.397 70.2582 279.593 70.4674 279.845 70.6135C280.097 70.7568 280.393 70.8284 280.731 70.8284C280.957 70.8284 281.162 70.7969 281.345 70.7339C281.529 70.668 281.688 70.572 281.823 70.4459C281.957 70.3198 282.059 70.1636 282.128 69.9774L283.581 70.1407C283.489 70.5247 283.314 70.86 283.056 71.1465C282.801 71.4302 282.474 71.6509 282.076 71.8085C281.678 71.9632 281.222 72.0406 280.709 72.0406ZM289.938 67.0545L288.519 67.2092C288.479 67.066 288.409 66.9313 288.308 66.8052C288.211 66.6791 288.079 66.5774 287.913 66.5C287.747 66.4226 287.543 66.384 287.303 66.384C286.979 66.384 286.707 66.4542 286.486 66.5946C286.268 66.735 286.161 66.917 286.164 67.1405C286.161 67.3325 286.231 67.4886 286.374 67.609C286.52 67.7293 286.761 67.8282 287.096 67.9056L288.222 68.1463C288.847 68.281 289.311 68.4944 289.615 68.7867C289.922 69.079 290.077 69.4616 290.079 69.9344C290.077 70.3499 289.955 70.7167 289.714 71.0348C289.476 71.35 289.145 71.5964 288.721 71.7741C288.297 71.9517 287.81 72.0406 287.26 72.0406C286.452 72.0406 285.801 71.8715 285.308 71.5334C284.815 71.1924 284.522 70.7181 284.427 70.1106L285.944 69.9645C286.013 70.2625 286.159 70.4874 286.383 70.6393C286.606 70.7912 286.897 70.8671 287.255 70.8671C287.625 70.8671 287.922 70.7912 288.145 70.6393C288.371 70.4874 288.485 70.2997 288.485 70.0762C288.485 69.8871 288.412 69.7309 288.265 69.6077C288.122 69.4845 287.899 69.3899 287.595 69.324L286.469 69.0876C285.835 68.9558 285.367 68.7337 285.063 68.4214C284.759 68.1062 284.609 67.7078 284.612 67.2264C284.609 66.8195 284.719 66.4671 284.943 66.169C285.169 65.8682 285.483 65.636 285.884 65.4727C286.288 65.3065 286.754 65.2234 287.281 65.2234C288.055 65.2234 288.664 65.3882 289.108 65.7177C289.555 66.0473 289.831 66.4928 289.938 67.0545ZM296.339 67.0545L294.92 67.2092C294.88 67.066 294.81 66.9313 294.709 66.8052C294.612 66.6791 294.48 66.5774 294.314 66.5C294.148 66.4226 293.944 66.384 293.704 66.384C293.38 66.384 293.108 66.4542 292.887 66.5946C292.669 66.735 292.562 66.917 292.565 67.1405C292.562 67.3325 292.632 67.4886 292.775 67.609C292.921 67.7293 293.162 67.8282 293.497 67.9056L294.623 68.1463C295.248 68.281 295.712 68.4944 296.016 68.7867C296.323 69.079 296.478 69.4616 296.48 69.9344C296.478 70.3499 296.356 70.7167 296.115 71.0348C295.877 71.35 295.546 71.5964 295.122 71.7741C294.698 71.9517 294.211 72.0406 293.661 72.0406C292.853 72.0406 292.202 71.8715 291.709 71.5334C291.216 71.1924 290.923 70.7181 290.828 70.1106L292.345 69.9645C292.414 70.2625 292.56 70.4874 292.784 70.6393C293.007 70.7912 293.298 70.8671 293.656 70.8671C294.026 70.8671 294.323 70.7912 294.546 70.6393C294.772 70.4874 294.886 70.2997 294.886 70.0762C294.886 69.8871 294.813 69.7309 294.666 69.6077C294.523 69.4845 294.3 69.3899 293.996 69.324L292.87 69.0876C292.236 68.9558 291.768 68.7337 291.464 68.4214C291.16 68.1062 291.01 67.7078 291.013 67.2264C291.01 66.8195 291.12 66.4671 291.344 66.169C291.57 65.8682 291.884 65.636 292.285 65.4727C292.689 65.3065 293.155 65.2234 293.682 65.2234C294.456 65.2234 295.065 65.3882 295.509 65.7177C295.956 66.0473 296.233 66.4928 296.339 67.0545Z" fill="white"/>
</g>
<defs>
<filter id="filter0_d_4_7250" x="48.3391" y="112.082" width="33.7006" height="33.7006" filterUnits="userSpaceOnUse" color-interpolation-filters="sRGB">
<feFlood flood-opacity="0" result="BackgroundImageFix"/>
<feColorMatrix in="SourceAlpha" type="matrix" values="0 0 0 0 0 0 0 0 0 0 0 0 0 0 0 0 0 0 127 0" result="hardAlpha"/>
<feOffset dy="1.52049"/>
<feGaussianBlur stdDeviation="1.33043"/>
<feComposite in2="hardAlpha" operator="out"/>
<feColorMatrix type="matrix" values="0 0 0 0 0 0 0 0 0 0 0 0 0 0 0 0 0 0 0.07 0"/>
<feBlend mode="normal" in2="BackgroundImageFix" result="effect1_dropShadow_4_7250"/>
<feBlend mode="normal" in="SourceGraphic" in2="effect1_dropShadow_4_7250" result="shape"/>
</filter>
<filter id="filter1_d_4_7250" x="83.7793" y="0.480713" width="184.147" height="220.242" filterUnits="userSpaceOnUse" color-interpolation-filters="sRGB">
<feFlood flood-opacity="0" result="BackgroundImageFix"/>
<feColorMatrix in="SourceAlpha" type="matrix" values="0 0 0 0 0 0 0 0 0 0 0 0 0 0 0 0 0 0 127 0" result="hardAlpha"/>
<feOffset dy="4"/>
<feGaussianBlur stdDeviation="12"/>
<feComposite in2="hardAlpha" operator="out"/>
<feColorMatrix type="matrix" values="0 0 0 0 0.0479167 0 0 0 0 0.124569 0 0 0 0 0.25 0 0 0 0.2 0"/>
<feBlend mode="normal" in2="BackgroundImageFix" result="effect1_dropShadow_4_7250"/>
<feBlend mode="normal" in="SourceGraphic" in2="effect1_dropShadow_4_7250" result="shape"/>
</filter>
<filter id="filter2_ddi_4_7250" x="113.146" y="30.0662" width="125.413" height="159.071" filterUnits="userSpaceOnUse" color-interpolation-filters="sRGB">
<feFlood flood-opacity="0" result="BackgroundImageFix"/>
<feColorMatrix in="SourceAlpha" type="matrix" values="0 0 0 0 0 0 0 0 0 0 0 0 0 0 0 0 0 0 127 0" result="hardAlpha"/>
<feOffset dy="4"/>
<feGaussianBlur stdDeviation="1.5"/>
<feComposite in2="hardAlpha" operator="out"/>
<feColorMatrix type="matrix" values="0 0 0 0 0.278431 0 0 0 0 0.333333 0 0 0 0 0.411765 0 0 0 0.13 0"/>
<feBlend mode="normal" in2="BackgroundImageFix" result="effect1_dropShadow_4_7250"/>
<feColorMatrix in="SourceAlpha" type="matrix" values="0 0 0 0 0 0 0 0 0 0 0 0 0 0 0 0 0 0 127 0" result="hardAlpha"/>
<feOffset/>
<feGaussianBlur stdDeviation="0.5"/>
<feComposite in2="hardAlpha" operator="out"/>
<feColorMatrix type="matrix" values="0 0 0 0 0.0588235 0 0 0 0 0.0901961 0 0 0 0 0.164706 0 0 0 0.1 0"/>
<feBlend mode="normal" in2="effect1_dropShadow_4_7250" result="effect2_dropShadow_4_7250"/>
<feBlend mode="normal" in="SourceGraphic" in2="effect2_dropShadow_4_7250" result="shape"/>
<feColorMatrix in="SourceAlpha" type="matrix" values="0 0 0 0 0 0 0 0 0 0 0 0 0 0 0 0 0 0 127 0" result="hardAlpha"/>
<feOffset dy="-6"/>
<feComposite in2="hardAlpha" operator="arithmetic" k2="-1" k3="1"/>
<feColorMatrix type="matrix" values="0 0 0 0 0.392157 0 0 0 0 0.454902 0 0 0 0 0.545098 0 0 0 0.1 0"/>
<feBlend mode="normal" in2="shape" result="effect3_innerShadow_4_7250"/>
</filter>
<filter id="filter3_i_4_7250" x="161.037" y="61.614" width="29.6309" height="69.2227" filterUnits="userSpaceOnUse" color-interpolation-filters="sRGB">
<feFlood flood-opacity="0" result="BackgroundImageFix"/>
<feBlend mode="normal" in="SourceGraphic" in2="BackgroundImageFix" result="shape"/>
<feColorMatrix in="SourceAlpha" type="matrix" values="0 0 0 0 0 0 0 0 0 0 0 0 0 0 0 0 0 0 127 0" result="hardAlpha"/>
<feOffset dy="4"/>
<feGaussianBlur stdDeviation="2"/>
<feComposite in2="hardAlpha" operator="arithmetic" k2="-1" k3="1"/>
<feColorMatrix type="matrix" values="0 0 0 0 0 0 0 0 0 0 0 0 0 0 0 0 0 0 0.11 0"/>
<feBlend mode="normal" in2="shape" result="effect1_innerShadow_4_7250"/>
</filter>
<filter id="filter4_d_4_7250" x="212.339" y="53.0818" width="33.7006" height="33.7006" filterUnits="userSpaceOnUse" color-interpolation-filters="sRGB">
<feFlood flood-opacity="0" result="BackgroundImageFix"/>
<feColorMatrix in="SourceAlpha" type="matrix" values="0 0 0 0 0 0 0 0 0 0 0 0 0 0 0 0 0 0 127 0" result="hardAlpha"/>
<feOffset dy="1.52049"/>
<feGaussianBlur stdDeviation="1.33043"/>
<feComposite in2="hardAlpha" operator="out"/>
<feColorMatrix type="matrix" values="0 0 0 0 0 0 0 0 0 0 0 0 0 0 0 0 0 0 0.07 0"/>
<feBlend mode="normal" in2="BackgroundImageFix" result="effect1_dropShadow_4_7250"/>
<feBlend mode="normal" in="SourceGraphic" in2="effect1_dropShadow_4_7250" result="shape"/>
</filter>
<clipPath id="clip0_4_7250">
<path d="M0 12C0 5.37258 5.37258 0 12 0H340C346.627 0 352 5.37258 352 12V201C352 207.627 346.627 213 340 213H12C5.37259 213 0 207.627 0 201V12Z" fill="white"/>
</clipPath>
</defs>
</svg>
