<svg width="20" height="20" viewBox="0 0 20 20" fill="none" xmlns="http://www.w3.org/2000/svg">
<path fill-rule="evenodd" clip-rule="evenodd" d="M9.58317 17.4999H10.4165C13.5592 17.4999 15.1305 17.4999 16.1069 16.5235C17.0832 15.5472 17.0832 13.9759 17.0832 10.8332V5.83154C16.9622 5.83324 16.7923 5.83321 16.6665 5.83318H3.33317C3.20738 5.83321 3.03751 5.83324 2.9165 5.83154V10.8332C2.9165 13.9759 2.9165 15.5472 3.89281 16.5235C4.86913 17.4999 6.44047 17.4999 9.58317 17.4999ZM7.56327 9.26427C7.49984 9.41741 7.49984 9.61155 7.49984 9.99984C7.49984 10.3881 7.49984 10.5823 7.56327 10.7354C7.64785 10.9396 7.81008 11.1018 8.01427 11.1864C8.16741 11.2498 8.36155 11.2498 8.74984 11.2498H11.2498C11.6381 11.2498 11.8323 11.2498 11.9854 11.1864C12.1896 11.1018 12.3518 10.9396 12.4364 10.7354C12.4998 10.5823 12.4998 10.3881 12.4998 9.99984C12.4998 9.61155 12.4998 9.41741 12.4364 9.26427C12.3518 9.06008 12.1896 8.89785 11.9854 8.81327C11.8323 8.74984 11.6381 8.74984 11.2498 8.74984H8.74984C8.36155 8.74984 8.16741 8.74984 8.01427 8.81327C7.81008 8.89785 7.64785 9.06008 7.56327 9.26427Z" fill="#02A3C7"/>
<g opacity="0.5">
<path d="M1.6665 4.16667C1.6665 3.38099 1.6665 2.98816 1.91058 2.74408C2.15466 2.5 2.5475 2.5 3.33317 2.5H16.6665C17.4522 2.5 17.845 2.5 18.0891 2.74408C18.3332 2.98816 18.3332 3.38099 18.3332 4.16667C18.3332 4.95234 18.3332 5.34518 18.0891 5.58926C17.845 5.83333 17.4522 5.83333 16.6665 5.83333H3.33317C2.5475 5.83333 2.15466 5.83333 1.91058 5.58926C1.6665 5.34518 1.6665 4.95234 1.6665 4.16667Z" fill="#00B3DB"/>
</g>
</svg>
