<svg width="20" height="20" viewBox="0 0 20 20" fill="none" xmlns="http://www.w3.org/2000/svg">
<path d="M7.08819 8.92851C7.08819 8.16144 7.7175 7.53961 8.49379 7.53961C9.27008 7.53961 9.89939 8.16144 9.89939 8.92851C9.89939 9.69558 9.27008 10.3174 8.49379 10.3174C7.7175 10.3174 7.08819 9.69558 7.08819 8.92851Z" fill="#007D52"/>
<path fill-rule="evenodd" clip-rule="evenodd" d="M1.66675 8.92845C1.66675 6.68365 1.66675 5.56125 2.3725 4.86387C3.07826 4.1665 4.21415 4.1665 6.48594 4.1665H10.5019C12.7737 4.1665 13.9096 4.1665 14.6154 4.86387C15.3211 5.56125 15.3211 6.68365 15.3211 8.92845C15.3211 11.1733 15.3211 12.2957 14.6154 12.993C13.9096 13.6904 12.7737 13.6904 10.5019 13.6904H6.48594C4.21415 13.6904 3.07826 13.6904 2.3725 12.993C1.66675 12.2957 1.66675 11.1733 1.66675 8.92845ZM5.88339 8.92851C5.88339 7.50395 7.05211 6.34912 8.49379 6.34912C9.93547 6.34912 11.1042 7.50395 11.1042 8.92851C11.1042 10.3531 9.93547 11.5079 8.49379 11.5079C7.05211 11.5079 5.88339 10.3531 5.88339 8.92851ZM3.4738 10.5158C3.4738 10.8446 3.7435 11.1111 4.07619 11.1111C4.40889 11.1111 4.67859 10.8446 4.67859 10.5158L4.67859 7.34119C4.67859 7.01245 4.40889 6.74595 4.07619 6.74595C3.7435 6.74595 3.4738 7.01245 3.4738 7.34119L3.4738 10.5158ZM12.9114 11.1111C12.5787 11.1111 12.309 10.8446 12.309 10.5158V7.34119C12.309 7.01245 12.5787 6.74595 12.9114 6.74595C13.2441 6.74595 13.5138 7.01245 13.5138 7.34119V10.5158C13.5138 10.8446 13.2441 11.1111 12.9114 11.1111Z" fill="#007D52"/>
<path opacity="0.5" d="M3.3877 13.5208C3.39856 13.6466 3.41161 13.767 3.42729 13.8823C3.52449 14.5966 3.73243 15.1981 4.21589 15.6758C4.28472 15.7439 4.35608 15.8064 4.42996 15.8638C4.9011 16.2921 5.48479 16.4821 6.17157 16.5733C6.86792 16.6658 7.7533 16.6658 8.85174 16.6658H12.9559C14.0543 16.6658 14.9397 16.6658 15.6361 16.5733C16.359 16.4773 16.9678 16.2718 17.4512 15.7941C17.9347 15.3164 18.1426 14.7149 18.2398 14.0005C18.3334 13.3124 18.3334 12.4376 18.3334 11.3522V11.2651C18.3334 10.1797 18.3334 9.3048 18.2398 8.61673C18.1426 7.90235 17.9347 7.30086 17.4512 6.82314C17.3824 6.75513 17.311 6.69264 17.2371 6.63519C16.766 6.20689 16.1823 6.0169 15.4955 5.92566C15.3865 5.91119 15.2729 5.89897 15.1546 5.88867C15.321 6.58316 15.321 7.54161 15.321 8.92846C15.321 11.1733 15.321 12.2957 14.6152 12.993C13.9095 13.6904 12.7736 13.6904 10.5018 13.6904H6.48581C5.06773 13.6904 4.09224 13.6904 3.3877 13.5208Z" fill="#1FC189"/>
</svg>
